<?xml version="1.0" encoding="UTF-8" standalone="no"?>
<!DOCTYPE svg PUBLIC "-//W3C//DTD SVG 1.1//EN" "http://www.w3.org/Graphics/SVG/1.1/DTD/svg11.dtd">
<svg width="435px" height="416px" version="1.1" xmlns="http://www.w3.org/2000/svg" xmlns:xlink="http://www.w3.org/1999/xlink" xml:space="preserve" xmlns:serif="http://www.serif.com/" style="fill-rule:evenodd;clip-rule:evenodd;stroke-linejoin:round;stroke-miterlimit:1.41421;">
    <g id="Artboard3">
        <g>
            <path d="M363.417,243.429c39.578,0.236 71.518,32.56 71.281,72.138c-0.236,39.578 -32.56,71.518 -72.138,71.281c-39.577,-0.236 -71.517,-32.56 -71.281,-72.138c0.237,-39.578 32.561,-71.518 72.138,-71.281Z" style="fill:rgb(236,93,87);"/>
            <path d="M73.417,243.429c39.578,0.236 71.518,32.56 71.281,72.138c-0.236,39.578 -32.56,71.518 -72.138,71.281c-39.577,-0.236 -71.517,-32.56 -71.281,-72.138c0.237,-39.578 32.561,-71.518 72.138,-71.281Z" style="fill:rgb(236,93,87);"/>
            <path d="M222.417,0.429c39.578,0.236 71.518,32.56 71.281,72.138c-0.236,39.578 -32.56,71.518 -72.138,71.281c-39.577,-0.236 -71.517,-32.56 -71.281,-72.138c0.237,-39.578 32.561,-71.518 72.138,-71.281Z" style="fill:rgb(236,93,87);"/>
            <path d="M152.662,344.77c18.92,12.378 41.49,19.634 65.75,19.779c23.18,0.139 44.9,-6.233 63.41,-17.401c6.43,16.262 17.61,30.145 31.83,39.923c-27.43,18.032 -60.29,28.443 -95.54,28.232c-34.8,-0.208 -67.15,-10.738 -94.15,-28.668c13.32,-10.681 23.45,-25.191 28.7,-41.865Zm-16.57,-252.879c3.71,17.2 12.49,32.532 24.72,44.335c-35.77,19.608 -60.66,56.685 -63.09,99.785c-8.71,-2.986 -18.04,-4.631 -27.75,-4.689c-7.95,-0.048 -15.65,0.971 -22.98,2.922c3.06,-61.419 38.29,-114.338 89.1,-142.353Zm170.05,2.247c48.28,28.311 81.55,79.437 85.06,138.44c-8.7,-2.974 -18.01,-4.612 -27.7,-4.67c-8.07,-0.048 -15.9,1.005 -23.34,3.019c-3.9,-39.738 -26.98,-73.933 -59.9,-93.123c12.54,-11.487 21.72,-26.591 25.88,-43.666Z" style="fill:rgb(236,93,87);"/>
        </g>
    </g>
</svg>
