<?xml version="1.0" encoding="UTF-8" standalone="no"?>
<!DOCTYPE svg PUBLIC "-//W3C//DTD SVG 1.1//EN" "http://www.w3.org/Graphics/SVG/1.1/DTD/svg11.dtd">
<svg width="100%" height="100%" viewBox="0 0 435 416" version="1.1" xmlns="http://www.w3.org/2000/svg" xmlns:xlink="http://www.w3.org/1999/xlink" xml:space="preserve" xmlns:serif="http://www.serif.com/" style="fill-rule:evenodd;clip-rule:evenodd;stroke-linejoin:round;stroke-miterlimit:1.41421;">
    <g transform="matrix(1,0,0,1,-461.708,0)">
        <g id="Artboard3" transform="matrix(1,0,0,1,-1933.15,0)">
            <rect x="2394.85" y="0" width="434.276" height="415.307" style="fill:none;"/>
            <clipPath id="_clip1">
                <rect x="2394.85" y="0" width="434.276" height="415.307"/>
            </clipPath>
            <g clip-path="url(#_clip1)">
                <g transform="matrix(0.91541,0.00547015,-0.00547015,0.91541,-1717.07,363.327)">
                    <circle cx="4887.94" cy="-81.85" r="78.336"/>
                </g>
                <g transform="matrix(0.91541,0.00547015,-0.00547015,0.91541,-2007.07,363.327)">
                    <circle cx="4887.94" cy="-81.85" r="78.336"/>
                </g>
                <g transform="matrix(0.91541,0.00547015,-0.00547015,0.91541,-1858.07,120.327)">
                    <circle cx="4887.94" cy="-81.85" r="78.336"/>
                </g>
                <g transform="matrix(1,0,0,1,-2968.09,-188.54)">
                    <path d="M5515.61,533.31C5534.53,545.688 5557.1,552.944 5581.36,553.089C5604.54,553.228 5626.26,546.856 5644.77,535.688C5651.2,551.95 5662.38,565.833 5676.6,575.611C5649.17,593.643 5616.31,604.054 5581.06,603.843C5546.26,603.635 5513.91,593.105 5486.91,575.175C5500.23,564.494 5510.36,549.984 5515.61,533.31ZM5499.04,280.431C5502.75,297.631 5511.53,312.963 5523.76,324.766C5487.99,344.374 5463.1,381.451 5460.67,424.551C5451.96,421.565 5442.63,419.92 5432.92,419.862C5424.97,419.814 5417.27,420.833 5409.94,422.784C5413,361.365 5448.23,308.446 5499.04,280.431ZM5669.09,282.678C5717.37,310.989 5750.64,362.115 5754.15,421.118C5745.45,418.144 5736.14,416.506 5726.45,416.448C5718.38,416.4 5710.55,417.453 5703.11,419.467C5699.21,379.729 5676.13,345.534 5643.21,326.344C5655.75,314.857 5664.93,299.753 5669.09,282.678Z"/>
                </g>
            </g>
        </g>
    </g>
</svg>
